HIERARCHY
ROOT Hips
{
 OFFSET 0.000000 0.000000 0.000000
 CHANNELS 6 Xposition Yposition Zposition Yrotation Xrotation Zrotation
 JOINT Chest
 {
  OFFSET 0.000000 9.585900 0.002600
  CHANNELS 3 Yrotation Xrotation Zrotation
  JOINT Chest2
  {
   OFFSET 0.000000 9.601200 -0.005300
   CHANNELS 3 Yrotation Xrotation Zrotation
   JOINT Chest3
   {
    OFFSET 0.000000 9.561800 0.000000
    CHANNELS 3 Yrotation Xrotation Zrotation
    JOINT Chest4
    {
     OFFSET 0.000000 9.552100 0.000000
     CHANNELS 3 Yrotation Xrotation Zrotation
     JOINT Neck
     {
      OFFSET 0.000000 14.453000 0.000000
      CHANNELS 3 Yrotation Xrotation Zrotation
      JOINT Head
      {
       OFFSET 0.000000 8.936500 -0.011300
       CHANNELS 3 Yrotation Xrotation Zrotation
       End Site
       {
        OFFSET 0.000000 17.073600 -0.006000
       }
      }
     }
     JOINT RightCollar
     {
      OFFSET -2.921100 9.558500 0.000000
      CHANNELS 3 Yrotation Xrotation Zrotation
      JOINT RightShoulder
      {
       OFFSET -13.519700 0.000000 0.000000
       CHANNELS 3 Yrotation Xrotation Zrotation
       JOINT RightElbow
       {
        OFFSET 0.000000 -29.696600 0.000000
        CHANNELS 3 Yrotation Xrotation Zrotation
        JOINT RightWrist
        {
         OFFSET 0.000000 -24.004700 0.000000
         CHANNELS 3 Yrotation Xrotation Zrotation
         End Site
         {
          OFFSET 0.000000 -17.728500 0.000000
         }
        }
       }
      }
     }
     JOINT LeftCollar
     {
      OFFSET 2.921100 9.558500 0.000000
      CHANNELS 3 Yrotation Xrotation Zrotation
      JOINT LeftShoulder
      {
       OFFSET 13.519700 0.000000 0.000000
       CHANNELS 3 Yrotation Xrotation Zrotation
       JOINT LeftElbow
       {
        OFFSET 0.000000 -29.696600 0.000000
        CHANNELS 3 Yrotation Xrotation Zrotation
        JOINT LeftWrist
        {
         OFFSET 0.000000 -24.004700 0.000000
         CHANNELS 3 Yrotation Xrotation Zrotation
         End Site
         {
          OFFSET 0.000000 -17.728500 0.000000
         }
        }
       }
      }
     }
    }
   }
  }
 }
 JOINT RightHip
 {
  OFFSET -7.771700 -0.012900 -0.001300
  CHANNELS 3 Yrotation Xrotation Zrotation
  JOINT RightKnee
  {
   OFFSET 0.000000 -40.869800 0.001200
   CHANNELS 3 Yrotation Xrotation Zrotation
   JOINT RightAnkle
   {
    OFFSET 0.000000 -39.717900 0.002100
    CHANNELS 3 Yrotation Xrotation Zrotation
    JOINT RightToe
    {
     OFFSET 0.000000 -4.965400 11.033500
     CHANNELS 3 Yrotation Xrotation Zrotation
     End Site
     {
      OFFSET 0.000000 -1.423100 5.872300
     }
    }
   }
  }
 }
 JOINT LeftHip
 {
  OFFSET 7.771700 -0.012900 -0.001300
  CHANNELS 3 Yrotation Xrotation Zrotation
  JOINT LeftKnee
  {
   OFFSET 0.000000 -40.869800 0.001200
   CHANNELS 3 Yrotation Xrotation Zrotation
   JOINT LeftAnkle
   {
    OFFSET 0.000000 -39.717900 0.002100
    CHANNELS 3 Yrotation Xrotation Zrotation
    JOINT LeftToe
    {
     OFFSET 0.000000 -4.965400 11.033500
     CHANNELS 3 Yrotation Xrotation Zrotation
     End Site
     {
      OFFSET 0.000000 -1.423100 5.872300
     }
    }
   }
  }
 }
}
MOTION
Frames: 8
Frame Time: 0.008333
-105.025564 46.667396 -32.241848 175.125799 -32.705089 -2.842147 0.652558 19.662627 1.502147 0.033413 2.404651 0.195874 0.087850 3.955017 0.289576 0.534812 16.990489 1.316591 -0.341345 17.650393 -2.200302 0.124541 -2.997058 -4.012989 -0.269819 0.956937 -1.054582 7.086989 -7.052263 -15.611628 -44.498436 -56.397829 93.595346 -2.393868 0.611264 -16.336586 0.029891 0.356834 2.002429 -6.489525 -4.349501 12.512735 71.898497 -71.480171 -110.666008 -2.341126 10.369376 7.201648 -6.218734 -53.086025 -2.844691 -164.019505 76.754430 -153.773033 -10.284623 -16.374460 -7.203314 -0.125359 -0.102649 -0.011807 1.001218 -56.546012 12.706609 -107.244641 81.979989 -111.904669 6.114137 -4.740756 4.979512 0.188308 0.054752 0.096015
-105.025023 46.665422 -32.236873 175.113267 -32.710949 -2.848981 0.652535 19.667287 1.528549 0.039052 2.404953 0.187914 0.091267 3.954786 0.285143 0.494450 16.981961 1.368183 -0.324678 17.668218 -2.210692 0.132233 -2.993970 -4.036643 -0.246395 0.968495 -1.086601 7.087396 -7.049038 -15.611686 -44.488812 -56.409729 93.595227 -2.402358 0.613606 -16.325957 0.064852 0.364501 1.949292 -6.494014 -4.342709 12.516417 71.874216 -71.493269 -110.642873 -2.332062 10.361760 7.195789 -6.219761 -53.084391 -2.818866 -164.082294 76.768206 -153.844620 -10.285013 -16.383968 -7.238041 -0.090272 -0.079500 0.003714 0.980591 -56.540934 12.736696 -107.217158 81.980939 -111.877070 6.155282 -4.737671 4.985514 0.148079 0.052264 0.077910
-105.026846 46.663231 -32.231453 175.086320 -32.712965 -2.828005 0.640660 19.669098 1.541608 0.059307 2.404628 0.166449 0.080921 3.953575 0.296262 0.486402 16.983743 1.373593 -0.317560 17.673068 -2.222630 0.145367 -2.939906 -3.924167 -0.254757 0.981276 -1.055891 7.101099 -7.061361 -15.643617 -44.445343 -56.426017 93.564543 -2.417688 0.556695 -16.305208 0.051005 0.356223 1.991461 -6.469324 -4.336384 12.459359 71.802500 -71.525888 -110.587636 -2.303672 10.342833 7.211264 -6.201483 -53.092383 -2.804514 -163.983395 76.768687 -153.764100 -10.310310 -16.377200 -7.231612 -0.065990 -0.073243 0.006879 0.996904 -56.537858 12.734134 -107.201179 81.984637 -111.866985 6.165235 -4.738964 4.982011 0.135776 0.054749 0.076007
-105.028528 46.661726 -32.226792 175.079137 -32.719531 -2.812874 0.638393 19.675571 1.532505 0.045243 2.404803 0.180285 0.078614 3.953750 0.297592 0.483227 16.986647 1.380706 -0.314626 17.675866 -2.235136 0.152228 -2.914360 -3.886651 -0.243012 0.980269 -1.081224 7.062105 -7.075639 -15.590492 -44.396212 -56.453926 93.540131 -2.410214 0.572817 -16.303117 0.055207 0.350918 1.982902 -6.474253 -4.325268 12.468475 71.844002 -71.524166 -110.627255 -2.283417 10.331548 7.225099 -6.182805 -53.090135 -2.817469 -163.886117 76.766726 -153.674656 -10.327056 -16.378534 -7.220157 -0.050078 -0.066383 0.001607 1.005316 -56.530140 12.722433 -107.169506 81.990407 -111.835052 6.154022 -4.733781 4.975593 0.138749 0.056485 0.073586
-105.027600 46.660459 -32.221879 175.069682 -32.725850 -2.807842 0.634665 19.683292 1.545602 0.044047 2.405134 0.181527 0.076526 3.954396 0.299833 0.482541 16.986642 1.372885 -0.311306 17.686434 -2.207395 0.153897 -2.895817 -3.872017 -0.254685 0.981859 -1.062986 7.049024 -7.083963 -15.586373 -44.395383 -56.471196 93.549951 -2.403973 0.593961 -16.293560 0.058115 0.348018 1.974144 -6.497373 -4.315425 12.517897 71.917800 -71.494191 -110.686194 -2.264700 10.320882 7.235124 -6.185056 -53.090294 -2.801358 -163.752387 76.757879 -153.556090 -10.330938 -16.371963 -7.208168 -0.072239 -0.067692 -0.007105 1.000705 -56.524292 12.723621 -107.157279 82.002512 -111.817830 6.183922 -4.731486 4.959873 0.142728 0.055285 0.073749
-105.027368 46.659426 -32.217394 175.061090 -32.733592 -2.795432 0.613071 19.691074 1.560042 0.052012 2.406365 0.167325 0.075419 3.956158 0.301557 0.485321 16.987035 1.365755 -0.309709 17.698161 -2.180700 0.156207 -2.879970 -3.856954 -0.264411 0.983307 -1.049478 7.053971 -7.087568 -15.602165 -44.443528 -56.474419 93.598524 -2.394808 0.603959 -16.274750 0.050467 0.343290 1.988544 -6.484446 -4.314737 12.494947 71.924987 -71.494076 -110.693714 -2.285886 10.323584 7.246326 -6.164970 -53.089971 -2.812615 -163.669276 76.749004 -153.480114 -10.315984 -16.364248 -7.205532 -0.098061 -0.071938 -0.018184 1.012352 -56.517893 12.708774 -107.163719 82.012196 -111.821937 6.188329 -4.730344 4.969362 0.134637 0.056057 0.058919
-105.026746 46.658235 -32.212557 175.050665 -32.737996 -2.781895 0.608882 19.695058 1.563977 0.051159 2.408120 0.167657 0.074367 3.958510 0.303792 0.481405 16.991072 1.374301 -0.307977 17.706613 -2.171302 0.154193 -2.868660 -3.839342 -0.272416 0.990307 -1.030717 7.060972 -7.099624 -15.640188 -44.477810 -56.474813 93.628094 -2.385884 0.601392 -16.253978 0.045661 0.333554 1.989606 -6.479895 -4.312952 12.493462 71.961072 -71.494448 -110.734031 -2.284739 10.322380 7.264389 -6.118036 -53.098044 -2.838638 -163.633158 76.736095 -153.434189 -10.313154 -16.350891 -7.205403 -0.089172 -0.080610 -0.016272 1.028596 -56.516241 12.689238 -107.160090 82.022122 -111.810240 6.198653 -4.721669 4.963309 0.119361 0.051692 0.056753
-105.024674 46.657898 -32.208766 175.036614 -32.749758 -2.772633 0.607649 19.705770 1.572572 0.055571 2.410997 0.171526 0.060594 3.965900 0.321801 0.487914 16.992544 1.363429 -0.308479 17.712624 -2.160739 0.148269 -2.872466 -3.849516 -0.280157 0.990281 -1.026942 7.051061 -7.109619 -15.653520 -44.489719 -56.490172 93.652804 -2.381722 0.599345 -16.235432 0.034718 0.322684 1.987246 -6.476149 -4.315551 12.495999 71.991194 -71.498498 -110.772950 -2.277018 10.317314 7.287943 -6.090346 -53.091250 -2.843322 -163.544133 76.728316 -153.347571 -10.288637 -16.342085 -7.205128 -0.082946 -0.081214 -0.015807 1.040632 -56.506783 12.682012 -107.176417 82.026104 -111.814015 6.192844 -4.719091 4.961171 0.125141 0.049643 0.049673
